<?xml version="1.0" encoding="UTF-8" standalone="no"?>
<svg
   xmlns:dc="http://purl.org/dc/elements/1.1/"
   xmlns:cc="http://creativecommons.org/ns#"
   xmlns:rdf="http://www.w3.org/1999/02/22-rdf-syntax-ns#"
   xmlns:svg="http://www.w3.org/2000/svg"
   xmlns="http://www.w3.org/2000/svg"
   xmlns:xlink="http://www.w3.org/1999/xlink"
   xmlns:sodipodi="http://sodipodi.sourceforge.net/DTD/sodipodi-0.dtd"
   xmlns:inkscape="http://www.inkscape.org/namespaces/inkscape"
   version="1.1"
   preserveAspectRatio="xMidYMid meet"
   viewBox="0 0 326.24875 326.25125"
   width="326.24875"
   height="326.25125"
   id="svg20"
   sodipodi:docname="geardiamondlogo2.svg"
   inkscape:version="0.92.4 (5da689c313, 2019-01-14)">
  <metadata
     id="metadata24">
    <rdf:RDF>
      <cc:Work
         rdf:about="">
        <dc:format>image/svg+xml</dc:format>
        <dc:type
           rdf:resource="http://purl.org/dc/dcmitype/StillImage" />
        <dc:title></dc:title>
      </cc:Work>
    </rdf:RDF>
  </metadata>
  <sodipodi:namedview
     pagecolor="#ffffff"
     bordercolor="#666666"
     borderopacity="1"
     objecttolerance="10"
     gridtolerance="10"
     guidetolerance="10"
     inkscape:pageopacity="0"
     inkscape:pageshadow="2"
     inkscape:window-width="716"
     inkscape:window-height="480"
     id="namedview22"
     showgrid="false"
     inkscape:zoom="0.36875"
     inkscape:cx="148.23125"
     inkscape:cy="138.735"
     inkscape:window-x="1113"
     inkscape:window-y="205"
     inkscape:window-maximized="0"
     inkscape:current-layer="svg20" />
  <defs
     id="defs4">
    <path
       d="m 484.06,261.89 c 18.61,18.62 18.61,48.8 0,67.41 -29.83,29.84 -85.62,85.64 -115.45,115.47 -18.62,18.62 -48.8,18.62 -67.41,0 -29.84,-29.83 -85.63,-85.62 -115.47,-115.45 -18.61,-18.61 -18.62,-48.79 0,-67.41 29.83,-29.83 85.62,-85.63 115.45,-115.46 18.61,-18.62 48.79,-18.62 67.41,-0.01 29.83,29.83 85.63,85.62 115.47,115.45 z"
       id="a58AYIdIKq"
       inkscape:connector-curvature="0" />
    <path
       d="m 348.76,205.62 0.17,0.02 0.17,0.03 0.16,0.04 0.16,0.05 0.15,0.06 0.15,0.07 0.14,0.07 0.14,0.08 0.14,0.09 0.13,0.1 0.13,0.1 0.12,0.11 0.12,0.12 0.12,0.13 0.12,0.13 0.11,0.13 0.1,0.15 0.11,0.15 0.1,0.15 0.1,0.17 0.1,0.16 0.09,0.17 0.09,0.18 0.09,0.18 0.09,0.19 0.09,0.19 0.08,0.2 0.09,0.2 0.08,0.2 0.08,0.21 0.08,0.21 0.08,0.21 0.07,0.22 0.08,0.22 0.08,0.23 0.07,0.22 0.08,0.23 0.08,0.24 3.89,14.6 1.22,0.37 2.7,0.96 2.65,1.06 2.6,1.16 2.54,1.26 0.21,0.11 13.12,-7.59 0.22,-0.11 0.22,-0.11 0.21,-0.11 0.21,-0.1 0.21,-0.1 0.21,-0.1 0.21,-0.1 0.21,-0.09 0.2,-0.09 0.2,-0.09 0.2,-0.08 0.2,-0.08 0.2,-0.07 0.19,-0.07 0.19,-0.07 0.19,-0.06 0.19,-0.05 0.19,-0.05 0.18,-0.05 0.18,-0.03 0.18,-0.04 0.18,-0.02 0.18,-0.02 0.17,-0.01 0.17,-0.01 h 0.17 l 0.17,0.01 0.16,0.02 0.16,0.02 0.16,0.04 0.16,0.04 0.15,0.05 0.15,0.06 0.15,0.06 0.15,0.08 0.14,0.09 0.14,0.09 0.14,0.11 0.14,0.12 0.13,0.12 19.1,19.1 0.12,0.13 0.12,0.14 0.11,0.14 0.1,0.14 0.09,0.15 0.08,0.15 0.07,0.15 0.06,0.16 0.05,0.15 0.05,0.17 0.04,0.16 0.03,0.17 0.02,0.16 0.01,0.18 0.01,0.17 v 0.18 l -0.01,0.17 -0.01,0.18 -0.02,0.19 -0.03,0.18 -0.03,0.19 -0.05,0.18 -0.04,0.19 -0.06,0.19 -0.05,0.2 -0.07,0.19 -0.07,0.19 -0.07,0.2 -0.08,0.2 -0.09,0.19 -0.09,0.2 -0.09,0.2 -0.1,0.2 -0.1,0.2 -0.11,0.2 -0.11,0.21 -0.11,0.2 -0.12,0.2 -0.12,0.2 -0.13,0.21 -7.58,13.09 0.15,0.29 1.26,2.54 1.16,2.6 1.06,2.65 0.96,2.7 0.38,1.22 14.6,3.9 0.23,0.05 0.23,0.06 0.22,0.06 0.23,0.06 0.22,0.07 0.22,0.06 0.21,0.07 0.21,0.07 0.21,0.08 0.21,0.07 0.2,0.08 0.19,0.09 0.19,0.08 0.19,0.09 0.18,0.09 0.18,0.1 0.17,0.09 0.17,0.1 0.16,0.11 0.15,0.11 0.15,0.11 0.15,0.11 0.13,0.12 0.14,0.12 0.12,0.12 0.12,0.13 0.11,0.13 0.1,0.14 0.1,0.13 0.09,0.15 0.08,0.14 0.08,0.15 0.06,0.16 0.06,0.16 0.05,0.16 0.04,0.17 0.03,0.17 0.02,0.17 0.02,0.18 v 0.19 27 0.18 l -0.02,0.18 -0.02,0.17 -0.03,0.17 -0.04,0.16 -0.05,0.16 -0.06,0.16 -0.06,0.14 -0.08,0.15 -0.08,0.14 -0.09,0.13 -0.1,0.14 -0.1,0.12 -0.11,0.13 -0.12,0.12 -0.12,0.12 -0.14,0.11 -0.13,0.11 -0.15,0.11 -0.15,0.1 -0.15,0.11 -0.16,0.09 -0.17,0.1 -0.17,0.1 -0.18,0.09 -0.18,0.09 -0.19,0.09 -0.19,0.08 -0.19,0.09 -0.2,0.08 -0.21,0.08 -0.21,0.08 -0.21,0.08 -0.21,0.08 -0.22,0.08 -0.22,0.08 -0.23,0.07 -0.22,0.08 -0.23,0.07 -0.23,0.08 -14.6,3.89 -0.38,1.22 -0.96,2.7 -1.06,2.65 -1.16,2.6 -1.26,2.55 -0.14,0.25 7.57,13.08 0.13,0.2 0.12,0.2 0.12,0.21 0.11,0.2 0.11,0.2 0.11,0.2 0.1,0.2 0.1,0.2 0.09,0.2 0.09,0.2 0.09,0.2 0.08,0.19 0.07,0.2 0.07,0.19 0.07,0.2 0.05,0.19 0.06,0.19 0.04,0.19 0.05,0.19 0.03,0.18 0.03,0.19 0.02,0.18 0.01,0.18 0.01,0.18 v 0.17 l -0.01,0.18 -0.01,0.17 -0.02,0.17 -0.03,0.16 -0.04,0.17 -0.05,0.16 -0.05,0.16 -0.06,0.15 -0.07,0.16 -0.08,0.15 -0.09,0.14 -0.1,0.15 -0.11,0.14 -0.12,0.13 -0.12,0.14 -19.1,19.09 -0.13,0.13 -0.14,0.11 -0.14,0.11 -0.14,0.1 -0.14,0.08 -0.15,0.08 -0.15,0.07 -0.15,0.06 -0.15,0.04 -0.16,0.05 -0.16,0.03 -0.16,0.02 -0.16,0.02 -0.17,0.01 h -0.17 -0.17 l -0.17,-0.02 -0.18,-0.01 -0.18,-0.03 -0.18,-0.03 -0.18,-0.04 -0.18,-0.04 -0.19,-0.05 -0.19,-0.06 -0.19,-0.06 -0.19,-0.06 -0.19,-0.07 -0.2,-0.08 -0.2,-0.08 -0.2,-0.08 -0.2,-0.08 -0.2,-0.09 -0.21,-0.1 -0.21,-0.09 -0.21,-0.1 -0.21,-0.1 -0.21,-0.11 -0.21,-0.11 -0.22,-0.1 -0.22,-0.11 -13.07,-7.57 -0.26,0.14 -2.54,1.25 -2.6,1.16 -2.65,1.06 -2.7,0.96 -1.22,0.38 -3.89,14.6 -0.08,0.23 -0.08,0.23 -0.07,0.23 -0.08,0.22 -0.08,0.22 -0.07,0.22 -0.08,0.22 -0.08,0.21 -0.08,0.21 -0.08,0.2 -0.09,0.2 -0.08,0.2 -0.09,0.19 -0.09,0.18 -0.09,0.19 -0.09,0.17 -0.09,0.18 -0.1,0.16 -0.1,0.16 -0.1,0.16 -0.11,0.15 -0.1,0.14 -0.11,0.14 -0.12,0.13 -0.12,0.13 -0.12,0.11 -0.12,0.11 -0.13,0.11 -0.13,0.1 -0.14,0.08 -0.14,0.09 -0.14,0.07 -0.15,0.07 -0.15,0.05 -0.16,0.05 -0.16,0.04 -0.17,0.04 -0.17,0.02 -0.18,0.01 -0.19,0.01 h -27 l -0.18,-0.01 -0.18,-0.01 -0.18,-0.02 -0.17,-0.04 -0.16,-0.04 -0.17,-0.05 -0.16,-0.05 -0.15,-0.07 -0.15,-0.07 -0.15,-0.09 -0.14,-0.08 -0.14,-0.1 -0.13,-0.11 -0.14,-0.11 -0.12,-0.11 -0.13,-0.13 -0.12,-0.13 -0.12,-0.14 -0.11,-0.14 -0.11,-0.15 -0.11,-0.16 -0.1,-0.16 -0.1,-0.16 -0.1,-0.18 -0.09,-0.17 -0.09,-0.19 -0.09,-0.18 -0.09,-0.19 -0.08,-0.2 -0.08,-0.2 -0.08,-0.2 -0.07,-0.21 -0.07,-0.21 -0.07,-0.22 -0.07,-0.22 -0.06,-0.22 -0.07,-0.22 -0.06,-0.23 -0.05,-0.23 -0.06,-0.23 -3.89,-14.6 -1.22,-0.38 -2.7,-0.96 -2.65,-1.06 -2.6,-1.16 -2.54,-1.25 -0.31,-0.17 -13.03,7.54 -0.2,0.13 -0.2,0.12 -0.2,0.12 -0.21,0.11 -0.2,0.11 -0.2,0.11 -0.2,0.1 -0.2,0.1 -0.2,0.09 -0.2,0.09 -0.2,0.09 -0.19,0.08 -0.2,0.07 -0.19,0.07 -0.2,0.07 -0.19,0.06 -0.19,0.05 -0.19,0.05 -0.19,0.04 -0.18,0.03 -0.18,0.03 -0.19,0.02 -0.18,0.01 -0.18,0.01 h -0.17 -0.17 l -0.18,-0.02 -0.17,-0.02 -0.16,-0.03 -0.17,-0.04 -0.16,-0.04 -0.16,-0.06 -0.15,-0.06 -0.15,-0.07 -0.15,-0.08 -0.15,-0.09 -0.14,-0.1 -0.14,-0.11 -0.14,-0.12 -0.14,-0.12 -19.09,-19.1 -0.13,-0.13 -0.11,-0.14 -0.11,-0.13 -0.09,-0.15 -0.09,-0.14 -0.08,-0.15 -0.06,-0.14 -0.06,-0.16 -0.05,-0.15 -0.04,-0.16 -0.04,-0.16 -0.02,-0.16 -0.02,-0.16 -0.01,-0.17 v -0.17 l 0.01,-0.17 0.01,-0.17 0.02,-0.18 0.02,-0.17 0.03,-0.18 0.04,-0.19 0.05,-0.18 0.05,-0.19 0.05,-0.19 0.06,-0.19 0.07,-0.19 0.06,-0.19 0.08,-0.2 0.08,-0.2 0.08,-0.2 0.09,-0.2 0.09,-0.2 0.09,-0.21 0.1,-0.21 0.09,-0.21 0.11,-0.21 0.1,-0.21 0.11,-0.21 0.11,-0.22 0.11,-0.22 7.55,-13.04 -0.13,-0.23 -1.25,-2.55 -1.16,-2.6 -1.06,-2.65 -0.96,-2.7 -0.38,-1.22 -14.6,-3.89 -0.23,-0.08 -0.23,-0.07 -0.23,-0.08 -0.22,-0.07 -0.22,-0.08 -0.22,-0.08 -0.22,-0.08 -0.21,-0.08 -0.2,-0.08 -0.21,-0.08 -0.2,-0.08 -0.19,-0.09 -0.2,-0.08 -0.18,-0.09 -0.18,-0.09 -0.18,-0.09 -0.17,-0.1 -0.17,-0.1 -0.16,-0.09 -0.16,-0.11 -0.15,-0.1 -0.14,-0.11 -0.14,-0.11 -0.13,-0.11 -0.12,-0.12 -0.12,-0.12 -0.11,-0.13 -0.11,-0.12 -0.09,-0.14 -0.09,-0.13 -0.08,-0.14 -0.08,-0.15 -0.06,-0.14 -0.06,-0.16 -0.05,-0.16 -0.04,-0.16 -0.03,-0.17 -0.03,-0.17 -0.01,-0.18 v -0.18 -27 -0.19 l 0.01,-0.18 0.03,-0.17 0.03,-0.17 0.04,-0.17 0.05,-0.16 0.06,-0.16 0.06,-0.16 0.08,-0.15 0.08,-0.14 0.09,-0.15 0.09,-0.13 0.11,-0.14 0.11,-0.13 0.12,-0.13 0.12,-0.12 0.13,-0.12 0.14,-0.12 0.14,-0.11 0.15,-0.11 0.16,-0.11 0.16,-0.11 0.17,-0.1 0.17,-0.09 0.18,-0.1 0.18,-0.09 0.18,-0.09 0.2,-0.08 0.19,-0.09 0.2,-0.08 0.21,-0.07 0.2,-0.08 0.21,-0.07 0.22,-0.07 0.22,-0.06 0.22,-0.07 0.22,-0.06 0.23,-0.06 0.23,-0.06 0.23,-0.05 14.6,-3.9 0.38,-1.22 0.96,-2.7 1.06,-2.65 1.16,-2.6 1.25,-2.54 0.15,-0.26 -7.57,-13.07 -0.11,-0.22 -0.11,-0.21 -0.11,-0.22 -0.1,-0.21 -0.11,-0.21 -0.09,-0.21 -0.1,-0.21 -0.09,-0.2 -0.09,-0.21 -0.09,-0.2 -0.08,-0.2 -0.08,-0.2 -0.08,-0.19 -0.06,-0.2 -0.07,-0.19 -0.06,-0.19 -0.05,-0.19 -0.05,-0.19 -0.05,-0.18 -0.04,-0.18 -0.03,-0.18 -0.02,-0.18 -0.02,-0.18 -0.01,-0.17 -0.01,-0.17 v -0.17 l 0.01,-0.16 0.02,-0.17 0.02,-0.16 0.04,-0.16 0.04,-0.16 0.05,-0.15 0.06,-0.15 0.06,-0.15 0.08,-0.15 0.09,-0.14 0.09,-0.14 0.11,-0.14 0.11,-0.14 0.13,-0.13 19.09,-19.09 0.14,-0.13 0.14,-0.12 0.14,-0.11 0.14,-0.09 0.15,-0.09 0.15,-0.08 0.15,-0.07 0.15,-0.07 0.16,-0.05 0.16,-0.05 0.17,-0.04 0.16,-0.03 0.17,-0.02 0.18,-0.01 0.17,-0.01 h 0.17 l 0.18,0.01 0.18,0.01 0.19,0.02 0.18,0.03 0.18,0.04 0.19,0.04 0.19,0.04 0.19,0.06 0.19,0.06 0.2,0.06 0.19,0.07 0.2,0.07 0.19,0.08 0.2,0.09 0.2,0.09 0.2,0.09 0.2,0.1 0.2,0.1 0.2,0.11 0.2,0.11 0.21,0.12 0.2,0.11 0.2,0.13 0.2,0.12 13.08,7.57 0.26,-0.14 2.54,-1.26 2.6,-1.16 2.65,-1.06 2.7,-0.96 1.22,-0.37 3.89,-14.6 0.06,-0.24 0.05,-0.23 0.06,-0.22 0.07,-0.23 0.06,-0.22 0.07,-0.22 0.07,-0.21 0.07,-0.21 0.07,-0.21 0.08,-0.2 0.08,-0.2 0.08,-0.2 0.09,-0.19 0.09,-0.19 0.09,-0.18 0.09,-0.18 0.1,-0.17 0.1,-0.16 0.1,-0.17 0.11,-0.15 0.11,-0.15 0.11,-0.15 0.12,-0.13 0.12,-0.13 0.13,-0.13 0.12,-0.12 0.14,-0.11 0.13,-0.1 0.14,-0.1 0.14,-0.09 0.15,-0.08 0.15,-0.07 0.15,-0.07 0.16,-0.06 0.17,-0.05 0.16,-0.04 0.17,-0.03 0.18,-0.02 0.18,-0.02 h 0.18 27 0.19 z m -17.1,50.74 -1.58,0.16 -1.57,0.23 -1.55,0.28 -1.53,0.34 -1.5,0.41 -1.48,0.46 -1.46,0.51 -1.42,0.57 -1.4,0.63 -1.37,0.68 -1.34,0.72 -1.31,0.78 -1.27,0.83 -1.24,0.87 -1.21,0.92 -1.16,0.96 -1.13,1.01 -1.09,1.04 -1.05,1.09 -1.01,1.13 -0.96,1.17 -0.92,1.2 -0.87,1.24 -0.83,1.28 -0.77,1.3 -0.73,1.34 -0.68,1.37 -0.62,1.4 -0.57,1.43 -0.52,1.45 -0.46,1.48 -0.4,1.51 -0.35,1.52 -0.28,1.55 -0.22,1.57 -0.16,1.59 -0.1,1.61 -0.04,1.62 0.04,1.62 0.1,1.61 0.16,1.59 0.22,1.57 0.28,1.54 0.35,1.53 0.4,1.51 0.46,1.48 0.52,1.45 0.57,1.43 0.62,1.4 0.68,1.37 0.73,1.33 0.77,1.31 0.83,1.28 0.87,1.24 0.92,1.2 0.96,1.17 1.01,1.12 1.05,1.09 1.09,1.05 1.13,1.01 1.16,0.96 1.21,0.92 1.24,0.87 1.27,0.83 1.31,0.77 1.34,0.73 1.37,0.68 1.4,0.62 1.42,0.57 1.46,0.52 1.48,0.46 1.5,0.4 1.53,0.35 1.55,0.28 1.57,0.23 1.58,0.16 1.61,0.09 1.62,0.04 1.63,-0.04 1.6,-0.09 1.59,-0.16 1.57,-0.23 1.55,-0.28 1.53,-0.35 1.5,-0.4 1.48,-0.46 1.45,-0.52 1.43,-0.57 1.4,-0.62 1.37,-0.68 1.34,-0.73 1.31,-0.77 1.27,-0.83 1.24,-0.87 1.2,-0.92 1.17,-0.96 1.13,-1.01 1.09,-1.05 1.05,-1.09 1,-1.12 0.97,-1.17 0.91,-1.2 0.88,-1.24 0.82,-1.28 0.78,-1.31 0.73,-1.33 0.67,-1.37 0.63,-1.4 0.57,-1.43 0.51,-1.45 0.46,-1.48 0.41,-1.51 0.34,-1.53 0.29,-1.54 0.22,-1.57 0.16,-1.59 0.1,-1.61 0.03,-1.62 -0.03,-1.62 -0.1,-1.61 -0.16,-1.59 -0.22,-1.57 -0.29,-1.55 -0.34,-1.52 -0.41,-1.51 -0.46,-1.48 -0.51,-1.45 -0.57,-1.43 -0.63,-1.4 -0.67,-1.37 -0.73,-1.34 -0.78,-1.3 -0.82,-1.28 -0.88,-1.24 -0.91,-1.2 -0.97,-1.17 -1,-1.13 -1.05,-1.09 -1.09,-1.04 -1.13,-1.01 -1.17,-0.96 -1.2,-0.92 -1.24,-0.87 -1.27,-0.83 -1.31,-0.78 -1.34,-0.72 -1.37,-0.68 -1.4,-0.63 -1.43,-0.57 -1.45,-0.51 -1.48,-0.46 -1.5,-0.41 -1.53,-0.34 -1.55,-0.28 -1.57,-0.23 -1.59,-0.16 -1.6,-0.1 -1.63,-0.03 -1.62,0.03 z"
       id="b1FSMNA0Fm"
       inkscape:connector-curvature="0" />
  </defs>
  <g
     id="g18"
     transform="translate(-171.76875,-132.48375)">
    <g
       id="g16">
      <g
         id="g14">
        <g
           id="g8">
          <use
             xlink:href="#a58AYIdIKq"
             id="use6"
             style="opacity:1;fill:#446ab5;fill-opacity:1"
             x="0"
             y="0"
             width="100%"
             height="100%" />
        </g>
        <g
           id="g12">
          <use
             xlink:href="#b1FSMNA0Fm"
             id="use10"
             style="opacity:1;fill:#ffffff;fill-opacity:1"
             x="0"
             y="0"
             width="100%"
             height="100%" />
        </g>
      </g>
    </g>
  </g>
</svg>
