<?xml version="1.0" encoding="UTF-8" standalone="no"?>
<!DOCTYPE svg PUBLIC "-//W3C//DTD SVG 1.1//EN" "http://www.w3.org/Graphics/SVG/1.1/DTD/svg11.dtd">
<svg version="1.1" xmlns="http://www.w3.org/2000/svg" xmlns:xlink="http://www.w3.org/1999/xlink" preserveAspectRatio="xMidYMid meet" viewBox="0 0 640 640" width="640" height="640"><defs><path d="M437.16 74.48L437.18 73.7L437.23 72.93L437.31 72.17L437.41 71.42L437.55 70.68L437.72 69.94L437.91 69.22L438.14 68.51L438.39 67.82L438.67 67.13L438.97 66.46L439.3 65.8L439.65 65.16L440.03 64.53L440.43 63.92L440.85 63.33L441.3 62.75L441.76 62.19L442.25 61.65L442.76 61.13L443.29 60.62L443.84 60.14L444.4 59.68L444.99 59.24L445.59 58.82L446.21 58.42L446.84 58.05L447.49 57.7L448.15 57.38L448.83 57.08L449.52 56.8L450.23 56.56L450.95 56.34L451.68 56.14L452.42 55.98L453.17 55.84L453.93 55.73L454.7 55.66L455.48 55.61L456.26 55.59L532.66 55.59L533.45 55.61L534.23 55.66L535 55.73L535.76 55.84L536.51 55.98L537.25 56.14L537.98 56.34L538.7 56.56L539.4 56.8L540.09 57.08L540.77 57.38L541.44 57.7L542.09 58.05L542.72 58.42L543.34 58.82L543.94 59.24L544.52 59.68L545.09 60.14L545.64 60.62L546.17 61.13L546.67 61.65L547.16 62.19L547.63 62.75L548.08 63.33L548.5 63.92L548.9 64.53L549.28 65.16L549.63 65.8L549.96 66.46L550.26 67.13L550.54 67.82L550.79 68.51L551.01 69.22L551.21 69.94L551.37 70.68L551.51 71.42L551.62 72.17L551.7 72.93L551.75 73.7L551.76 74.48L551.76 272.79L628.16 357.77L551.76 357.77L551.76 622.18L381.7 622.18L381.7 622.13L381.71 621.29L381.71 437.86L381.7 437.02L381.65 436.19L381.57 435.37L381.45 434.55L381.31 433.75L381.14 432.96L380.94 432.18L380.71 431.42L380.45 430.67L380.16 429.93L379.85 429.2L379.51 428.5L379.15 427.8L378.76 427.13L378.34 426.47L377.91 425.82L377.45 425.2L376.96 424.6L376.46 424.01L375.94 423.45L375.39 422.91L374.82 422.39L374.24 421.89L373.64 421.41L373.02 420.96L372.38 420.53L371.72 420.13L371.05 419.75L370.37 419.4L369.67 419.08L368.95 418.78L368.23 418.52L367.48 418.28L366.73 418.07L365.97 417.89L365.19 417.74L364.41 417.63L363.61 417.54L362.81 417.49L362 417.48L283.13 417.48L282.32 417.49L281.52 417.54L280.72 417.63L279.94 417.74L279.16 417.89L278.4 418.07L277.64 418.28L276.9 418.52L276.18 418.78L275.46 419.08L274.76 419.4L274.08 419.75L273.4 420.13L272.75 420.53L272.11 420.96L271.49 421.41L270.89 421.89L270.3 422.39L269.74 422.91L269.19 423.45L268.67 424.01L268.16 424.6L267.68 425.2L267.22 425.82L266.79 426.47L266.37 427.13L265.98 427.8L265.62 428.5L265.28 429.2L264.97 429.93L264.68 430.67L264.42 431.42L264.19 432.18L263.99 432.96L263.82 433.75L263.67 434.55L263.56 435.37L263.48 436.19L263.43 437.02L263.42 437.86L263.42 621.29L263.43 622.13L263.43 622.18L93.37 622.18L93.37 357.77L16.97 357.77L322.56 17.82L437.16 145.3L437.16 74.48Z" id="a3iQ8h7qA8"></path></defs><g><g><g><use xlink:href="#a3iQ8h7qA8" opacity="1" fill="#000000" fill-opacity="1"></use><g><use xlink:href="#a3iQ8h7qA8" opacity="1" fill-opacity="0" stroke="#000000" stroke-width="1" stroke-opacity="1"></use></g></g></g></g></svg>