<?xml version="1.0" encoding="UTF-8" standalone="no"?>
<!DOCTYPE svg PUBLIC "-//W3C//DTD SVG 1.1//EN" "http://www.w3.org/Graphics/SVG/1.1/DTD/svg11.dtd">
<svg version="1.1" xmlns="http://www.w3.org/2000/svg" xmlns:xlink="http://www.w3.org/1999/xlink" preserveAspectRatio="xMidYMid meet" viewBox="0 0 640 640" width="640" height="640"><defs><path d="M519.61 241.1C536.44 241.1 550.08 254.74 550.08 271.57C550.08 335.49 550.08 496.8 550.08 560.73C550.08 577.56 536.44 591.2 519.61 591.2C437.1 591.2 220.04 591.2 137.52 591.2C120.7 591.2 107.05 577.56 107.05 560.73C107.05 496.8 107.05 335.49 107.05 271.57C107.05 254.74 120.7 241.1 137.52 241.1C220.04 241.1 437.1 241.1 519.61 241.1Z" id="a20OfRP0Qb"></path><path d="M473.4 268.87C473.4 387.31 408.51 483.48 328.57 483.48C248.63 483.48 183.73 387.31 183.73 268.87C183.73 150.42 248.63 54.26 328.57 54.26C408.51 54.26 473.4 150.42 473.4 268.87Z" id="c2vLFCqWuv"></path><path d="M383.94 376.59C383.94 402.14 360.61 422.88 331.87 422.88C303.14 422.88 279.81 402.14 279.81 376.59C279.81 351.05 303.14 330.31 331.87 330.31C360.61 330.31 383.94 351.05 383.94 376.59Z" id="akD7iQnjY"></path><path d="M305.99 405.75L356.89 403.53L391.51 511.25L283.59 511.25L305.99 405.75Z" id="c1mJ0ppRPA"></path></defs><g><g><g><use xlink:href="#a20OfRP0Qb" opacity="1" fill="#000000" fill-opacity="1"></use></g><g><use xlink:href="#c2vLFCqWuv" opacity="1" fill="#000000" fill-opacity="0"></use><g><use xlink:href="#c2vLFCqWuv" opacity="1" fill-opacity="0" stroke="#000000" stroke-width="80" stroke-opacity="1"></use></g></g><g><use xlink:href="#akD7iQnjY" opacity="1" fill="#fffefe" fill-opacity="1"></use></g><g><use xlink:href="#c1mJ0ppRPA" opacity="1" fill="#ffffff" fill-opacity="1"></use></g></g></g></svg>