<?xml version="1.0" encoding="UTF-8" standalone="no"?>
<!DOCTYPE svg PUBLIC "-//W3C//DTD SVG 1.1//EN" "http://www.w3.org/Graphics/SVG/1.1/DTD/svg11.dtd">
<svg version="1.1" xmlns="http://www.w3.org/2000/svg" xmlns:xlink="http://www.w3.org/1999/xlink" preserveAspectRatio="xMidYMid meet" viewBox="0 0 640 640" width="640" height="640"><defs><path d="M267.29 142.63L451.65 142.63L451.65 575.57L131.01 575.57L131.01 259.19L82.92 259.19L82.92 625.52L499.75 625.52L499.75 92.67L267.29 92.67L267.29 142.63ZM235.22 230.23L235.22 92.67L82.92 230.23L235.22 230.23Z" id="a5O8r2QPBN"></path><path d="M378.48 288.06L348.21 303.67L347.94 303.8L347.67 303.91L347.4 304L347.13 304.07L346.86 304.12L346.59 304.16L346.33 304.18L346.06 304.18L345.8 304.17L345.54 304.14L345.29 304.1L345.03 304.04L344.79 303.97L344.55 303.88L344.31 303.78L344.08 303.67L343.86 303.55L343.65 303.41L343.44 303.26L343.24 303.1L343.05 302.93L342.87 302.75L342.7 302.56L342.54 302.36L342.4 302.16L342.26 301.94L342.13 301.72L342.02 301.48L341.93 301.25L341.84 301L341.77 300.75L341.72 300.49L341.68 300.23L341.65 299.96L341.65 299.69L341.66 299.42L341.68 299.14L341.73 298.86L341.79 298.58L341.88 298.29L351.9 267.39L365.3 226.11L418.46 267.44L378.48 288.06ZM428.84 255.4L374.24 212.96L502.33 64.4L556.93 106.84L428.84 255.4ZM555.13 14.54L555.8 14.61L556.46 14.71L557.12 14.82L557.77 14.97L558.43 15.14L559.07 15.34L559.72 15.56L560.35 15.8L560.98 16.07L561.6 16.37L562.21 16.69L562.81 17.04L563.41 17.42L563.99 17.82L564.56 18.24L592.3 39.81L592.84 40.24L593.35 40.69L593.84 41.16L594.3 41.65L594.74 42.15L595.16 42.67L595.55 43.2L595.92 43.74L596.27 44.29L596.59 44.86L596.89 45.44L597.16 46.02L597.41 46.62L597.64 47.22L597.84 47.83L598.01 48.45L598.16 49.07L598.29 49.7L598.39 50.33L598.46 50.97L598.51 51.6L598.54 52.24L598.54 52.88L598.52 53.52L598.47 54.16L598.39 54.8L598.29 55.44L598.16 56.07L598.01 56.7L597.83 57.32L597.63 57.94L597.4 58.55L597.14 59.16L596.86 59.76L596.55 60.34L596.22 60.92L595.86 61.49L595.47 62.05L595.06 62.59L594.62 63.12L566.08 96.23L511.48 53.79L540.03 20.68L540.5 20.15L540.99 19.65L541.5 19.16L542.02 18.7L542.56 18.27L543.11 17.85L543.67 17.46L544.24 17.1L544.83 16.75L545.43 16.43L546.03 16.14L546.65 15.87L547.27 15.62L547.9 15.4L548.54 15.2L549.18 15.02L549.83 14.87L550.49 14.74L551.14 14.64L551.8 14.56L552.47 14.51L553.13 14.48L553.8 14.48L554.46 14.5L555.13 14.54Z" id="ef9PMChM"></path><path d="M228.61 338.61L429.11 338.61L429.11 373.57L228.61 373.57L228.61 338.61Z" id="a5cHfYLGBI"></path><path d="M167.9 338.61L204.73 338.61L204.73 373.57L167.9 373.57L167.9 338.61Z" id="bimhSot3"></path><path d="M228.61 481.3L429.11 481.3L429.11 516.27L228.61 516.27L228.61 481.3Z" id="a1qxy0Edxy"></path><path d="M167.9 410.59L204.73 410.59L204.73 445.56L167.9 445.56L167.9 410.59Z" id="a3oU4EFier"></path><path d="M228.61 410.59L429.11 410.59L429.11 445.56L228.61 445.56L228.61 410.59Z" id="a93pKnEriW"></path><path d="M167.9 481.3L204.73 481.3L204.73 516.27L167.9 516.27L167.9 481.3Z" id="k2OqN9Jys6"></path></defs><g><g><g><use xlink:href="#a5O8r2QPBN" opacity="1" fill="#000000" fill-opacity="1"></use><g><use xlink:href="#a5O8r2QPBN" opacity="1" fill-opacity="0" stroke="#000000" stroke-width="1" stroke-opacity="1"></use></g></g><g><use xlink:href="#ef9PMChM" opacity="1" fill="#080808" fill-opacity="1"></use></g><g><use xlink:href="#a5cHfYLGBI" opacity="1" fill="#080808" fill-opacity="1"></use></g><g><use xlink:href="#bimhSot3" opacity="1" fill="#080808" fill-opacity="1"></use></g><g><use xlink:href="#a1qxy0Edxy" opacity="1" fill="#080808" fill-opacity="1"></use></g><g><use xlink:href="#a3oU4EFier" opacity="1" fill="#080808" fill-opacity="1"></use></g><g><use xlink:href="#a93pKnEriW" opacity="1" fill="#080808" fill-opacity="1"></use></g><g><use xlink:href="#k2OqN9Jys6" opacity="1" fill="#080808" fill-opacity="1"></use></g></g></g></svg>